HIERARCHY
ROOT root
{
	OFFSET 0.000000 0.000000 0.000000
	CHANNELS 6 Xposition Yposition Zposition Zrotation Yrotation Xrotation
	JOINT lhip
	{
		OFFSET 0.058581 -0.082280 -0.017664
		CHANNELS 3 Zrotation Yrotation Xrotation
		JOINT lknee
		{
			OFFSET 0.043451 -0.386469 0.008037
			CHANNELS 3 Zrotation Yrotation Xrotation
			JOINT lankle
			{
				OFFSET -0.014790 -0.426874 -0.037428
				CHANNELS 3 Zrotation Yrotation Xrotation
				JOINT ltoe
				{
					OFFSET 0.041054 -0.060286 0.122042
					CHANNELS 3 Zrotation Yrotation Xrotation
					End Site
					{
						OFFSET 0.000000 0.000000 0.000000
					}
				}
			}
		}
	}
	JOINT rhip
	{
		OFFSET -0.060310 -0.090513 -0.013543
		CHANNELS 3 Zrotation Yrotation Xrotation
		JOINT rknee
		{
			OFFSET -0.043257 -0.383688 -0.004843
			CHANNELS 3 Zrotation Yrotation Xrotation
			JOINT rankle
			{
				OFFSET 0.019056 -0.420046 -0.034562
				CHANNELS 3 Zrotation Yrotation Xrotation
				JOINT rtoe
				{
					OFFSET -0.034840 -0.062106 0.130323
					CHANNELS 3 Zrotation Yrotation Xrotation
					End Site
					{
						OFFSET 0.000000 0.000000 0.000000
					}
				}
			}
		}
	}
	JOINT lowerback
	{
		OFFSET 0.004439 0.124404 -0.038385
		CHANNELS 3 Zrotation Yrotation Xrotation
		JOINT upperback
		{
			OFFSET 0.004488 0.137956 0.026820
			CHANNELS 3 Zrotation Yrotation Xrotation
			JOINT chest
			{
				OFFSET -0.002265 0.056032 0.002855
				CHANNELS 3 Zrotation Yrotation Xrotation
				JOINT lowerneck
				{
					OFFSET -0.013390 0.211636 -0.033468
					CHANNELS 3 Zrotation Yrotation Xrotation
					JOINT upperneck
					{
						OFFSET 0.010113 0.088937 0.050410
						CHANNELS 3 Zrotation Yrotation Xrotation
						End Site
						{
							OFFSET 0.000000 0.000000 0.000000
						}
					}
				}
				JOINT lclavicle
				{
					OFFSET 0.071702 0.114000 -0.018898
					CHANNELS 3 Zrotation Yrotation Xrotation
					JOINT lshoulder
					{
						OFFSET 0.122921 0.045205 -0.019046
						CHANNELS 3 Zrotation Yrotation Xrotation
						JOINT lelbow
						{
							OFFSET 0.255332 -0.015649 -0.022946
							CHANNELS 3 Zrotation Yrotation Xrotation
							JOINT lwrist
							{
								OFFSET 0.265709 0.012698 -0.007375
								CHANNELS 3 Zrotation Yrotation Xrotation
								End Site
								{
									OFFSET 0.000000 0.000000 0.000000
								}
							}
						}
					}
				}
				JOINT rclavicle
				{
					OFFSET -0.082954 0.112472 -0.023707
					CHANNELS 3 Zrotation Yrotation Xrotation
					JOINT rshoulder
					{
						OFFSET -0.113228 0.046853 -0.008472
						CHANNELS 3 Zrotation Yrotation Xrotation
						JOINT relbow
						{
							OFFSET -0.260127 -0.014369 -0.031269
							CHANNELS 3 Zrotation Yrotation Xrotation
							JOINT rwrist
							{
								OFFSET -0.269108 0.006794 -0.006027
								CHANNELS 3 Zrotation Yrotation Xrotation
								End Site
								{
									OFFSET 0.000000 0.000000 0.000000
								}
							}
						}
					}
				}
			}
		}
	}
}
MOTION
Frames: 5
Frame Time: 0.033333
-0.048253 0.272077 1.000756 77.661533 0.955063 84.998010 4.593038 6.151967 -4.003924 -3.042422 5.488496 18.696996 -0.432305 10.941952 -9.162571 0.000000 -0.000000 0.000000 -1.391853 -0.573242 -8.852657 -0.101220 2.849583 19.724551 5.274204 -4.572122 -6.998241 0.000000 -0.000000 0.000000 -5.115267 -5.300550 18.082324 -2.149302 -13.443722 1.088546 -2.027124 -8.014912 2.449071 -0.650915 18.069269 4.406392 4.213779 21.155841 14.221167 -17.110970 -35.717718 2.720048 -44.067088 -38.360264 17.340252 3.768727 -52.833795 -3.899629 31.601740 -8.072417 -38.149859 6.016947 22.420718 -8.543621 41.994336 34.729574 18.102704 -14.992950 61.297977 -9.993182 -10.475794 5.462439 -37.566038 
-0.048998 0.271157 1.000828 78.144138 0.794255 84.897923 4.520297 5.866601 -4.133677 -3.119528 5.150904 18.986097 -0.541219 10.802079 -9.023938 0.000000 -0.000000 0.000000 -1.601605 -0.648528 -8.687998 0.009415 2.679996 19.722740 5.178164 -4.705797 -7.031519 0.000000 -0.000000 0.000000 -4.995047 -5.016067 18.088588 -2.080944 -13.069862 1.327141 -1.982656 -7.841794 2.410161 -0.438477 17.773611 4.079591 3.929665 20.428636 14.305330 -17.412457 -34.973172 2.853819 -44.182404 -37.564497 17.494598 3.219946 -53.721765 -3.084436 31.499461 -8.076548 -38.370222 6.726975 22.384547 -8.207386 42.499941 34.894607 18.527984 -14.016911 61.464990 -8.863903 -10.894202 5.788965 -37.009860 
-0.049415 0.270104 1.000988 79.206570 0.584187 84.938361 4.314842 5.313833 -4.454557 -3.184868 4.666829 19.143885 -0.518162 10.461578 -8.493199 0.000000 -0.000000 0.000000 -1.941049 -1.097495 -8.431721 0.074922 2.290581 19.454003 4.990239 -4.840951 -7.041540 0.000000 -0.000000 0.000000 -4.696786 -4.743753 17.899131 -1.968189 -12.846981 1.609260 -1.973421 -7.489478 2.420106 -0.406167 17.283343 3.824822 3.688850 19.284796 14.199899 -17.575291 -34.060968 2.793994 -44.530995 -36.611351 17.867602 2.941647 -54.657868 -2.658854 31.226002 -7.758035 -38.574373 7.270397 22.252208 -7.781824 43.515684 34.965044 19.211331 -13.716144 61.607748 -8.162987 -10.189561 5.275538 -35.752618 
-0.051713 0.268420 1.001937 80.407457 0.264856 85.036925 4.106209 4.771459 -4.862115 -3.469337 4.077577 19.164241 -1.233342 10.283321 -7.925738 0.000000 -0.000000 0.000000 -2.270068 -1.320015 -8.333071 -0.024396 1.644948 19.241493 4.960309 -5.013606 -7.116410 0.000000 -0.000000 0.000000 -4.433878 -4.080524 18.063380 -1.718270 -12.037027 1.493455 -1.764504 -6.782382 2.519834 -0.274263 16.423352 3.223494 3.419929 17.383616 14.342725 -17.453658 -32.761550 2.604068 -45.040359 -35.380369 18.539519 2.339761 -55.862571 -1.630340 31.403211 -7.309615 -39.379542 8.067062 22.433106 -7.261109 44.611558 34.834844 20.111766 -12.828392 61.619309 -7.337589 -10.874751 5.226818 -36.300868 
-0.052555 0.267342 1.002444 80.919516 0.070025 85.068826 4.018742 4.783955 -4.847658 -3.594135 3.932924 18.742320 -1.245666 10.069431 -7.452161 0.000000 -0.000000 0.000000 -2.409121 -1.390673 -8.228527 -0.152502 1.367252 19.064984 4.904759 -5.041340 -7.091363 0.000000 -0.000000 0.000000 -4.220234 -3.550956 17.987548 -1.595608 -11.206141 1.660583 -1.630338 -6.286446 2.424175 -0.188333 15.744011 3.101647 3.180791 16.124313 14.268019 -17.426095 -31.845688 2.509735 -45.386745 -34.515822 18.789555 1.808465 -56.599765 -0.649413 31.198436 -7.118394 -39.573884 8.743464 22.532363 -6.521832 45.363885 35.018723 20.463821 -12.410877 61.344332 -6.828673 -11.079902 5.193646 -36.097512 
